REM DIRINDEX 1\2,1\3,1\4,1\6,1\5\7,1\5\8
REM DIRNAME cjc114,folder01,folder02,folder03,folder04,folder05,folder06,folder07
TITLE ""
FILE "DB4500_5th_4B_32.mp3" MP3
  TRACK 01 AUDIO
    TITLE "2:cjc114_2755"
    INDEX 01 00:00:00
  TRACK 02 AUDIO
    TITLE "0:"
    INDEX 01 00:01:11
  TRACK 03 AUDIO
    TITLE "3:cjc114_2756"
    INDEX 01 00:01:38
  TRACK 04 AUDIO
    TITLE "0:"
    INDEX 01 00:02:53
  TRACK 05 AUDIO
    TITLE "4:cjc114_2757"
    INDEX 01 00:03:08
  TRACK 06 AUDIO
    TITLE "0:"
    INDEX 01 00:05:73
  TRACK 07 AUDIO
    TITLE "2:cjc114_2758"
    INDEX 01 00:06:51
  TRACK 08 AUDIO
    TITLE "0:"
    INDEX 01 00:07:62
  TRACK 09 AUDIO
    TITLE "3:cjc114_2759"
    INDEX 01 00:08:17
  TRACK 10 AUDIO
    TITLE "0:"
    INDEX 01 00:09:40
  TRACK 11 AUDIO
    TITLE "4:cjc114_2760"
    INDEX 01 00:09:69
  TRACK 12 AUDIO
    TITLE "0:"
    INDEX 01 00:14:09
  TRACK 13 AUDIO
    TITLE "2:cjc114_2761"
    INDEX 01 00:14:64
  TRACK 14 AUDIO
    TITLE "0:"
    INDEX 01 00:15:64
  TRACK 15 AUDIO
    TITLE "3:cjc114_2762"
    INDEX 01 00:16:16
  TRACK 16 AUDIO
    TITLE "0:"
    INDEX 01 00:17:33
  TRACK 17 AUDIO
    TITLE "4:cjc114_2763"
    INDEX 01 00:17:61
  TRACK 18 AUDIO
    TITLE "0:"
    INDEX 01 00:20:57
  TRACK 19 AUDIO
    TITLE "2:cjc114_2764"
    INDEX 01 00:21:37
  TRACK 20 AUDIO
    TITLE "0:"
    INDEX 01 00:22:44
  TRACK 21 AUDIO
    TITLE "3:cjc114_2765"
    INDEX 01 00:22:74
  TRACK 22 AUDIO
    TITLE "0:"
    INDEX 01 00:24:39
  TRACK 23 AUDIO
    TITLE "4:cjc114_2766"
    INDEX 01 00:24:67
  TRACK 24 AUDIO
    TITLE "0:"
    INDEX 01 00:27:63
  TRACK 25 AUDIO
    TITLE "2:cjc114_2767"
    INDEX 01 00:28:41
  TRACK 26 AUDIO
    TITLE "0:"
    INDEX 01 00:29:44
  TRACK 27 AUDIO
    TITLE "3:cjc114_2768"
    INDEX 01 00:29:72
  TRACK 28 AUDIO
    TITLE "0:"
    INDEX 01 00:32:09
  TRACK 29 AUDIO
    TITLE "4:cjc114_2769"
    INDEX 01 00:32:37
  TRACK 30 AUDIO
    TITLE "0:"
    INDEX 01 00:34:61
  TRACK 31 AUDIO
    TITLE "4:cjc114_2770"
    INDEX 01 00:35:39
  TRACK 32 AUDIO
    TITLE "0:"
    INDEX 01 00:38:26
  TRACK 33 AUDIO
    TITLE "2:cjc114_2771"
    INDEX 01 00:39:03
  TRACK 34 AUDIO
    TITLE "0:"
    INDEX 01 00:40:15
  TRACK 35 AUDIO
    TITLE "3:cjc114_2772"
    INDEX 01 00:40:42
  TRACK 36 AUDIO
    TITLE "0:"
    INDEX 01 00:41:55
  TRACK 37 AUDIO
    TITLE "4:cjc114_2773"
    INDEX 01 00:42:21
  TRACK 38 AUDIO
    TITLE "0:"
    INDEX 01 00:44:69
  TRACK 39 AUDIO
    TITLE "2:cjc114_2774"
    INDEX 01 00:45:57
  TRACK 40 AUDIO
    TITLE "0:"
    INDEX 01 00:47:11
  TRACK 41 AUDIO
    TITLE "3:cjc114_2775"
    INDEX 01 00:47:36
  TRACK 42 AUDIO
    TITLE "0:"
    INDEX 01 00:48:42
  TRACK 43 AUDIO
    TITLE "4:cjc114_2776"
    INDEX 01 00:48:63
  TRACK 44 AUDIO
    TITLE "0:"
    INDEX 01 00:52:36
  TRACK 45 AUDIO
    TITLE "2:cjc114_2777"
    INDEX 01 00:53:09
  TRACK 46 AUDIO
    TITLE "0:"
    INDEX 01 00:54:15
  TRACK 47 AUDIO
    TITLE "3:cjc114_2778"
    INDEX 01 00:54:34
  TRACK 48 AUDIO
    TITLE "0:"
    INDEX 01 00:56:18
  TRACK 49 AUDIO
    TITLE "4:cjc114_2779"
    INDEX 01 00:56:37
  TRACK 50 AUDIO
    TITLE "0:"
    INDEX 01 00:59:30
  TRACK 51 AUDIO
    TITLE "2:cjc114_2780"
    INDEX 01 01:00:04
  TRACK 52 AUDIO
    TITLE "0:"
    INDEX 01 01:01:17
  TRACK 53 AUDIO
    TITLE "3:cjc114_2781"
    INDEX 01 01:01:38
  TRACK 54 AUDIO
    TITLE "0:"
    INDEX 01 01:03:04
  TRACK 55 AUDIO
    TITLE "4:cjc114_2782"
    INDEX 01 01:03:24
  TRACK 56 AUDIO
    TITLE "0:"
    INDEX 01 01:07:17
  TRACK 57 AUDIO
    TITLE "2:cjc114_2783"
    INDEX 01 01:07:63
  TRACK 58 AUDIO
    TITLE "0:"
    INDEX 01 01:09:10
  TRACK 59 AUDIO
    TITLE "3:cjc114_2784"
    INDEX 01 01:09:34
  TRACK 60 AUDIO
    TITLE "0:"
    INDEX 01 01:11:03
  TRACK 61 AUDIO
    TITLE "4:cjc114_2785"
    INDEX 01 01:11:25
  TRACK 62 AUDIO
    TITLE "0:"
    INDEX 01 01:14:72
  TRACK 63 AUDIO
    TITLE "2:cjc114_2786"
    INDEX 01 01:15:42
  TRACK 64 AUDIO
    TITLE "0:"
    INDEX 01 01:17:02
  TRACK 65 AUDIO
    TITLE "3:cjc114_2787"
    INDEX 01 01:17:26
  TRACK 66 AUDIO
    TITLE "0:"
    INDEX 01 01:19:13
  TRACK 67 AUDIO
    TITLE "4:cjc114_2788"
    INDEX 01 01:19:38
  TRACK 68 AUDIO
    TITLE "0:"
    INDEX 01 01:24:32
  TRACK 69 AUDIO
    TITLE "2:cjc114_2789"
    INDEX 01 01:25:00
  TRACK 70 AUDIO
    TITLE "0:"
    INDEX 01 01:26:13
  TRACK 71 AUDIO
    TITLE "3:cjc114_2790"
    INDEX 01 01:26:36
  TRACK 72 AUDIO
    TITLE "0:"
    INDEX 01 01:27:61
  TRACK 73 AUDIO
    TITLE "4:cjc114_2791"
    INDEX 01 01:28:06
  TRACK 74 AUDIO
    TITLE "0:"
    INDEX 01 01:31:39
